<?xml version="1.0" encoding="UTF-8" standalone="no"?>
<!DOCTYPE svg PUBLIC "-//W3C//DTD SVG 1.1//EN"
 "http://www.w3.org/Graphics/SVG/1.1/DTD/svg11.dtd">
<!-- Generated by graphviz version 2.40.1 (20161225.0304)
 -->
<!-- Title: G Pages: 1 -->
<svg width="413pt" height="216pt"
 viewBox="0.00 0.00 413.25 216.00" xmlns="http://www.w3.org/2000/svg" xmlns:xlink="http://www.w3.org/1999/xlink">
<g id="graph0" class="graph" transform="scale(1 1) rotate(0) translate(4 212)">
<title>G</title>
<polygon fill="#ffffff" stroke="transparent" points="-4,4 -4,-212 409.2455,-212 409.2455,4 -4,4"/>
<!-- A0 -->
<g id="node1" class="node">
<title>A0</title>
<polygon fill="none" stroke="#000000" points="291.2,-208 201.821,-208 201.821,-172 291.2,-172 291.2,-208"/>
<text text-anchor="middle" x="246.5105" y="-187" font-family="Helvetica,sans-Serif" font-size="10.00" fill="#000000">std::exception</text>
</g>
<!-- A1 -->
<g id="node2" class="node">
<title>A1</title>
<polygon fill="none" stroke="#000000" points="174.6266,-122 80.3944,-122 80.3944,-86 174.6266,-86 174.6266,-122"/>
<text text-anchor="middle" x="127.5105" y="-101" font-family="Helvetica,sans-Serif" font-size="10.00" fill="#000000">std::logic_error</text>
</g>
<!-- A0&#45;&gt;A1 -->
<g id="edge1" class="edge">
<title>A0&#45;&gt;A1</title>
<path fill="none" stroke="#000000" d="M213.3355,-166.0248C194.0359,-152.0772 170.1079,-134.7847 152.424,-122.0047"/>
<polygon fill="none" stroke="#000000" points="211.4091,-168.9509 221.5642,-171.9716 215.5093,-163.2774 211.4091,-168.9509"/>
</g>
<!-- A2 -->
<g id="node3" class="node">
<title>A2</title>
<polygon fill="none" stroke="#000000" points="299.9036,-122 193.1174,-122 193.1174,-86 299.9036,-86 299.9036,-122"/>
<text text-anchor="middle" x="246.5105" y="-101" font-family="Helvetica,sans-Serif" font-size="10.00" fill="#000000">std::runtime_error</text>
</g>
<!-- A0&#45;&gt;A2 -->
<g id="edge2" class="edge">
<title>A0&#45;&gt;A2</title>
<path fill="none" stroke="#000000" d="M246.5105,-161.4762C246.5105,-148.5329 246.5105,-133.6086 246.5105,-122.2121"/>
<polygon fill="none" stroke="#000000" points="243.0106,-161.7616 246.5105,-171.7616 250.0106,-161.7616 243.0106,-161.7616"/>
</g>
<!-- A3 -->
<g id="node4" class="node">
<title>A3</title>
<polygon fill="none" stroke="#000000" points="405.4818,-122 317.5392,-122 317.5392,-86 405.4818,-86 405.4818,-122"/>
<text text-anchor="middle" x="361.5105" y="-101" font-family="Helvetica,sans-Serif" font-size="10.00" fill="#000000">std::bad_cast</text>
</g>
<!-- A0&#45;&gt;A3 -->
<g id="edge3" class="edge">
<title>A0&#45;&gt;A3</title>
<path fill="none" stroke="#000000" d="M278.8215,-165.837C297.4285,-151.9222 320.4215,-134.7274 337.4345,-122.0047"/>
<polygon fill="none" stroke="#000000" points="276.5305,-163.1798 270.6183,-171.9716 280.7227,-168.7856 276.5305,-163.1798"/>
</g>
<!-- A4 -->
<g id="node5" class="node">
<title>A4</title>
<polygon fill="none" stroke="#000000" points="123.0315,-36 -.0105,-36 -.0105,0 123.0315,0 123.0315,-36"/>
<text text-anchor="middle" x="61.5105" y="-15" font-family="Helvetica,sans-Serif" font-size="10.00" fill="#000000">std::invalid_argument</text>
</g>
<!-- A1&#45;&gt;A4 -->
<g id="edge4" class="edge">
<title>A1&#45;&gt;A4</title>
<path fill="none" stroke="#000000" d="M107.3908,-77.7834C97.0711,-64.3365 84.7582,-48.2924 75.4872,-36.2121"/>
<polygon fill="none" stroke="#000000" points="104.6488,-79.9594 113.5136,-85.7616 110.202,-75.6976 104.6488,-79.9594"/>
</g>
<!-- A5 -->
<g id="node6" class="node">
<title>A5</title>
<polygon fill="none" stroke="#000000" points="246.3247,-36 140.6963,-36 140.6963,0 246.3247,0 246.3247,-36"/>
<text text-anchor="middle" x="193.5105" y="-15" font-family="Helvetica,sans-Serif" font-size="10.00" fill="#000000">std::out_of_range</text>
</g>
<!-- A1&#45;&gt;A5 -->
<g id="edge5" class="edge">
<title>A1&#45;&gt;A5</title>
<path fill="none" stroke="#000000" d="M147.6302,-77.7834C157.9499,-64.3365 170.2628,-48.2924 179.5338,-36.2121"/>
<polygon fill="none" stroke="#000000" points="144.819,-75.6976 141.5074,-85.7616 150.3722,-79.9594 144.819,-75.6976"/>
</g>
</g>
</svg>
