<?xml version="1.0" encoding="UTF-8" standalone="no"?>
<!DOCTYPE svg PUBLIC "-//W3C//DTD SVG 1.1//EN"
 "http://www.w3.org/Graphics/SVG/1.1/DTD/svg11.dtd">
<!-- Generated by graphviz version 2.40.1 (20161225.0304)
 -->
<!-- Title: G Pages: 1 -->
<svg width="390pt" height="44pt"
 viewBox="0.00 0.00 390.35 44.00" xmlns="http://www.w3.org/2000/svg" xmlns:xlink="http://www.w3.org/1999/xlink">
<g id="graph0" class="graph" transform="scale(1 1) rotate(0) translate(4 40)">
<title>G</title>
<polygon fill="#ffffff" stroke="transparent" points="-4,4 -4,-40 386.353,-40 386.353,4 -4,4"/>
<!-- A0 -->
<g id="node1" class="node">
<title>A0</title>
<polygon fill="none" stroke="#000000" points="99.1711,-36 -.0571,-36 -.0571,0 99.1711,0 99.1711,-36"/>
<text text-anchor="middle" x="49.557" y="-15" font-family="Helvetica,sans-Serif" font-size="10.00" fill="#000000">Forward Iterator</text>
</g>
<!-- A1 -->
<g id="node2" class="node">
<title>A1</title>
<polygon fill="none" stroke="#000000" points="231.7872,-36 148.8888,-36 148.8888,0 231.7872,0 231.7872,-36"/>
<text text-anchor="middle" x="190.338" y="-21" font-family="Helvetica,sans-Serif" font-size="10.00" fill="#000000">Bidirectional</text>
<text text-anchor="middle" x="190.338" y="-9" font-family="Helvetica,sans-Serif" font-size="10.00" fill="#000000">Iterator</text>
</g>
<!-- A0&#45;&gt;A1 -->
<g id="edge1" class="edge">
<title>A0&#45;&gt;A1</title>
<path fill="none" stroke="#000000" d="M109.2975,-18C122.6911,-18 136.6114,-18 149.0577,-18"/>
<polygon fill="none" stroke="#000000" points="109.1911,-14.5001 99.1911,-18 109.1911,-21.5001 109.1911,-14.5001"/>
</g>
<!-- A2 -->
<g id="node3" class="node">
<title>A2</title>
<polygon fill="none" stroke="#000000" points="382.2487,-36 281.6663,-36 281.6663,0 382.2487,0 382.2487,-36"/>
<text text-anchor="middle" x="331.9575" y="-21" font-family="Helvetica,sans-Serif" font-size="10.00" fill="#000000">Random Access</text>
<text text-anchor="middle" x="331.9575" y="-9" font-family="Helvetica,sans-Serif" font-size="10.00" fill="#000000">Iterator</text>
</g>
<!-- A1&#45;&gt;A2 -->
<g id="edge2" class="edge">
<title>A1&#45;&gt;A2</title>
<path fill="none" stroke="#000000" d="M241.822,-18C254.7619,-18 268.6342,-18 281.5222,-18"/>
<polygon fill="none" stroke="#000000" points="241.681,-14.5001 231.6809,-18 241.6809,-21.5001 241.681,-14.5001"/>
</g>
</g>
</svg>
