<?xml version="1.0" encoding="UTF-8" standalone="no"?>
<!DOCTYPE svg PUBLIC "-//W3C//DTD SVG 1.1//EN"
 "http://www.w3.org/Graphics/SVG/1.1/DTD/svg11.dtd">
<!-- Generated by graphviz version 2.40.1 (20161225.0304)
 -->
<!-- Title: G Pages: 1 -->
<svg width="669pt" height="138pt"
 viewBox="0.00 0.00 669.34 138.00" xmlns="http://www.w3.org/2000/svg" xmlns:xlink="http://www.w3.org/1999/xlink">
<g id="graph0" class="graph" transform="scale(1 1) rotate(0) translate(4 134)">
<title>G</title>
<polygon fill="#ffffff" stroke="transparent" points="-4,4 -4,-134 665.339,-134 665.339,4 -4,4"/>
<!-- A0 -->
<g id="node1" class="node">
<title>A0</title>
<ellipse fill="none" stroke="#000000" cx="11" cy="-89" rx="11" ry="11"/>
</g>
<!-- A1 -->
<g id="node2" class="node">
<title>A1</title>
<polygon fill="none" stroke="#000000" points="77,-107 59,-89 77,-71 95,-89 77,-107"/>
</g>
<!-- A0&#45;&gt;A1 -->
<g id="edge1" class="edge">
<title>A0&#45;&gt;A1</title>
<path fill="none" stroke="#000000" d="M22.196,-89C29.4642,-89 39.2865,-89 48.6084,-89"/>
<polygon fill="#000000" stroke="#000000" points="58.7577,-89 48.7577,-93.5001 53.7577,-89 48.7577,-89.0001 48.7577,-89.0001 48.7577,-89.0001 53.7577,-89 48.7576,-84.5001 58.7577,-89 58.7577,-89"/>
</g>
<!-- A2 -->
<g id="node3" class="node">
<title>A2</title>
<path fill="none" stroke="#000000" d="M330.7921,-130C330.7921,-130 263.1369,-130 263.1369,-130 257.1369,-130 251.1369,-124 251.1369,-118 251.1369,-118 251.1369,-106 251.1369,-106 251.1369,-100 257.1369,-94 263.1369,-94 263.1369,-94 330.7921,-94 330.7921,-94 336.7921,-94 342.7921,-100 342.7921,-106 342.7921,-106 342.7921,-118 342.7921,-118 342.7921,-124 336.7921,-130 330.7921,-130"/>
<text text-anchor="middle" x="296.9645" y="-109" font-family="Helvetica,sans-Serif" font-size="10.00" fill="#000000">コード修正</text>
</g>
<!-- A1&#45;&gt;A2 -->
<g id="edge2" class="edge">
<title>A1&#45;&gt;A2</title>
<path fill="none" stroke="#000000" d="M93.5331,-90.7287C124.408,-93.9571 192.119,-101.0371 240.9539,-106.1434"/>
<polygon fill="#000000" stroke="#000000" points="251.0682,-107.201 240.6544,-110.6365 246.0953,-106.681 241.1224,-106.1609 241.1224,-106.1609 241.1224,-106.1609 246.0953,-106.681 241.5905,-101.6853 251.0682,-107.201 251.0682,-107.201"/>
<text text-anchor="middle" x="146.1505" y="-102" font-family="Helvetica,sans-Serif" font-size="10.00" fill="#000000">API 互換性なし</text>
</g>
<!-- A3 -->
<g id="node4" class="node">
<title>A3</title>
<polygon fill="none" stroke="#000000" points="215.301,-84 197.301,-66 215.301,-48 233.301,-66 215.301,-84"/>
</g>
<!-- A1&#45;&gt;A3 -->
<g id="edge3" class="edge">
<title>A1&#45;&gt;A3</title>
<path fill="none" stroke="#000000" d="M90.5254,-84.2362C97.2142,-82.0431 105.4525,-79.5823 113,-78 138.1876,-72.7194 167.3862,-69.5836 188.126,-67.8499"/>
<polygon fill="#000000" stroke="#000000" points="198.1345,-67.0672 188.5158,-72.3333 193.1497,-67.4571 188.1649,-67.847 188.1649,-67.847 188.1649,-67.847 193.1497,-67.4571 187.814,-63.3607 198.1345,-67.0672 198.1345,-67.0672"/>
<text text-anchor="middle" x="146.1505" y="-81" font-family="Helvetica,sans-Serif" font-size="10.00" fill="#000000">API 互換性あり</text>
</g>
<!-- A4 -->
<g id="node5" class="node">
<title>A4</title>
<path fill="none" stroke="#000000" d="M578.5162,-84C578.5162,-84 544.4108,-84 544.4108,-84 538.4108,-84 532.4108,-78 532.4108,-72 532.4108,-72 532.4108,-60 532.4108,-60 532.4108,-54 538.4108,-48 544.4108,-48 544.4108,-48 578.5162,-48 578.5162,-48 584.5162,-48 590.5162,-54 590.5162,-60 590.5162,-60 590.5162,-72 590.5162,-72 590.5162,-78 584.5162,-84 578.5162,-84"/>
<text text-anchor="middle" x="561.4635" y="-63" font-family="Helvetica,sans-Serif" font-size="10.00" fill="#000000">ビルド</text>
</g>
<!-- A2&#45;&gt;A4 -->
<g id="edge6" class="edge">
<title>A2&#45;&gt;A4</title>
<path fill="none" stroke="#000000" d="M343.0034,-109.7703C386.6895,-106.8663 453.9044,-100.3431 510.588,-86 514.6247,-84.9785 518.7722,-83.7198 522.8738,-82.335"/>
<polygon fill="#000000" stroke="#000000" points="532.2875,-78.9276 524.4161,-86.5625 527.586,-80.6294 522.8845,-82.3312 522.8845,-82.3312 522.8845,-82.3312 527.586,-80.6294 521.3529,-78.0998 532.2875,-78.9276 532.2875,-78.9276"/>
</g>
<!-- A3&#45;&gt;A4 -->
<g id="edge4" class="edge">
<title>A3&#45;&gt;A4</title>
<path fill="none" stroke="#000000" d="M233.4248,-66C287.2569,-66 447.1025,-66 521.9614,-66"/>
<polygon fill="#000000" stroke="#000000" points="532.3667,-66 522.3668,-70.5001 527.3667,-66 522.3667,-66.0001 522.3667,-66.0001 522.3667,-66.0001 527.3667,-66 522.3667,-61.5001 532.3667,-66 532.3667,-66"/>
<text text-anchor="middle" x="393.4575" y="-69" font-family="Helvetica,sans-Serif" font-size="10.00" fill="#000000">静的ライブラリ</text>
</g>
<!-- A5 -->
<g id="node6" class="node">
<title>A5</title>
<polygon fill="none" stroke="#000000" points="393.4575,-36 375.4575,-18 393.4575,0 411.4575,-18 393.4575,-36"/>
</g>
<!-- A3&#45;&gt;A5 -->
<g id="edge5" class="edge">
<title>A3&#45;&gt;A5</title>
<path fill="none" stroke="#000000" d="M226.2193,-58.7513C233.1437,-54.4592 242.4381,-49.2431 251.301,-46 290.0517,-31.8203 337.5117,-24.3159 366.6077,-20.7542"/>
<polygon fill="#000000" stroke="#000000" points="376.8034,-19.5765 367.3858,-25.1943 371.8364,-20.1502 366.8694,-20.724 366.8694,-20.724 366.8694,-20.724 371.8364,-20.1502 366.353,-16.2537 376.8034,-19.5765 376.8034,-19.5765"/>
<text text-anchor="middle" x="296.9645" y="-49" font-family="Helvetica,sans-Serif" font-size="10.00" fill="#000000">動的ライブラリ</text>
</g>
<!-- A6 -->
<g id="node7" class="node">
<title>A6</title>
<ellipse fill="none" stroke="#000000" cx="646.339" cy="-24" rx="11" ry="11"/>
<ellipse fill="none" stroke="#000000" cx="646.339" cy="-24" rx="15" ry="15"/>
</g>
<!-- A4&#45;&gt;A6 -->
<g id="edge9" class="edge">
<title>A4&#45;&gt;A6</title>
<path fill="none" stroke="#000000" d="M590.6728,-51.546C601.4291,-46.2233 613.4451,-40.2773 623.5525,-35.2758"/>
<polygon fill="#000000" stroke="#000000" points="632.5548,-30.821 625.5879,-39.2894 628.0734,-33.0386 623.5921,-35.2562 623.5921,-35.2562 623.5921,-35.2562 628.0734,-33.0386 621.5963,-31.223 632.5548,-30.821 632.5548,-30.821"/>
</g>
<!-- A5&#45;&gt;A4 -->
<g id="edge7" class="edge">
<title>A5&#45;&gt;A4</title>
<path fill="none" stroke="#000000" d="M408.8052,-20.9537C431.3636,-25.4555 474.6859,-34.7129 510.588,-46 514.6112,-47.2648 518.7707,-48.6932 522.8978,-50.1902"/>
<polygon fill="#000000" stroke="#000000" points="532.3899,-53.7631 521.4456,-54.4518 527.7104,-52.0017 523.0309,-50.2402 523.0309,-50.2402 523.0309,-50.2402 527.7104,-52.0017 524.6162,-46.0287 532.3899,-53.7631 532.3899,-53.7631"/>
<text text-anchor="middle" x="477.4375" y="-49" font-family="Helvetica,sans-Serif" font-size="10.00" fill="#000000">ABI 互換性なし</text>
</g>
<!-- A5&#45;&gt;A6 -->
<g id="edge8" class="edge">
<title>A5&#45;&gt;A6</title>
<path fill="none" stroke="#000000" d="M411.2396,-18.4219C455.3347,-19.4681 569.8374,-22.1849 620.9984,-23.3988"/>
<polygon fill="#000000" stroke="#000000" points="631.1844,-23.6404 621.0804,-27.9019 626.1858,-23.5218 621.1872,-23.4031 621.1872,-23.4031 621.1872,-23.4031 626.1858,-23.5218 621.294,-18.9044 631.1844,-23.6404 631.1844,-23.6404"/>
<text text-anchor="middle" x="561.4635" y="-26" font-family="Helvetica,sans-Serif" font-size="10.00" fill="#000000">ABI 互換性あり</text>
</g>
</g>
</svg>
