<?xml version="1.0" encoding="UTF-8" standalone="no"?>
<!DOCTYPE svg PUBLIC "-//W3C//DTD SVG 1.1//EN"
 "http://www.w3.org/Graphics/SVG/1.1/DTD/svg11.dtd">
<!-- Generated by graphviz version 2.40.1 (20161225.0304)
 -->
<!-- Title: G Pages: 1 -->
<svg width="661pt" height="138pt"
 viewBox="0.00 0.00 661.00 138.00" xmlns="http://www.w3.org/2000/svg" xmlns:xlink="http://www.w3.org/1999/xlink">
<g id="graph0" class="graph" transform="scale(1 1) rotate(0) translate(4 134)">
<title>G</title>
<polygon fill="#ffffff" stroke="transparent" points="-4,4 -4,-134 657.002,-134 657.002,4 -4,4"/>
<!-- A0 -->
<g id="node1" class="node">
<title>A0</title>
<ellipse fill="none" stroke="#000000" cx="11" cy="-89" rx="11" ry="11"/>
</g>
<!-- A1 -->
<g id="node2" class="node">
<title>A1</title>
<polygon fill="none" stroke="#000000" points="77,-107 59,-89 77,-71 95,-89 77,-107"/>
</g>
<!-- A0&#45;&gt;A1 -->
<g id="edge1" class="edge">
<title>A0&#45;&gt;A1</title>
<path fill="none" stroke="#000000" d="M22.196,-89C29.4642,-89 39.2865,-89 48.6084,-89"/>
<polygon fill="#000000" stroke="#000000" points="58.7577,-89 48.7577,-93.5001 53.7577,-89 48.7577,-89.0001 48.7577,-89.0001 48.7577,-89.0001 53.7577,-89 48.7576,-84.5001 58.7577,-89 58.7577,-89"/>
</g>
<!-- A2 -->
<g id="node3" class="node">
<title>A2</title>
<path fill="none" stroke="#000000" d="M328.0131,-130C328.0131,-130 260.3579,-130 260.3579,-130 254.3579,-130 248.3579,-124 248.3579,-118 248.3579,-118 248.3579,-106 248.3579,-106 248.3579,-100 254.3579,-94 260.3579,-94 260.3579,-94 328.0131,-94 328.0131,-94 334.0131,-94 340.0131,-100 340.0131,-106 340.0131,-106 340.0131,-118 340.0131,-118 340.0131,-124 334.0131,-130 328.0131,-130"/>
<text text-anchor="middle" x="294.1855" y="-109" font-family="Helvetica,sans-Serif" font-size="10.00" fill="#000000">コード修正</text>
</g>
<!-- A1&#45;&gt;A2 -->
<g id="edge2" class="edge">
<title>A1&#45;&gt;A2</title>
<path fill="none" stroke="#000000" d="M93.3242,-90.7287C123.717,-93.9473 190.261,-100.9944 238.445,-106.0971"/>
<polygon fill="#000000" stroke="#000000" points="248.4287,-107.1543 238.0104,-110.5761 243.4565,-106.6277 238.4843,-106.1011 238.4843,-106.1011 238.4843,-106.1011 243.4565,-106.6277 238.9583,-101.6262 248.4287,-107.1543 248.4287,-107.1543"/>
<text text-anchor="middle" x="144.761" y="-102" font-family="Helvetica,sans-Serif" font-size="10.00" fill="#000000">API互換性なし</text>
</g>
<!-- A3 -->
<g id="node4" class="node">
<title>A3</title>
<polygon fill="none" stroke="#000000" points="212.522,-84 194.522,-66 212.522,-48 230.522,-66 212.522,-84"/>
</g>
<!-- A1&#45;&gt;A3 -->
<g id="edge3" class="edge">
<title>A1&#45;&gt;A3</title>
<path fill="none" stroke="#000000" d="M90.5277,-84.2468C97.2169,-82.0562 105.4551,-79.5945 113,-78 137.2478,-72.8756 165.3149,-69.739 185.4489,-67.9645"/>
<polygon fill="#000000" stroke="#000000" points="195.4677,-67.136 185.8726,-72.4449 190.4847,-67.5481 185.5017,-67.9602 185.5017,-67.9602 185.5017,-67.9602 190.4847,-67.5481 185.1308,-63.4755 195.4677,-67.136 195.4677,-67.136"/>
<text text-anchor="middle" x="144.761" y="-81" font-family="Helvetica,sans-Serif" font-size="10.00" fill="#000000">API互換性あり</text>
</g>
<!-- A4 -->
<g id="node5" class="node">
<title>A4</title>
<path fill="none" stroke="#000000" d="M571.5687,-84C571.5687,-84 537.4633,-84 537.4633,-84 531.4633,-84 525.4633,-78 525.4633,-72 525.4633,-72 525.4633,-60 525.4633,-60 525.4633,-54 531.4633,-48 537.4633,-48 537.4633,-48 571.5687,-48 571.5687,-48 577.5687,-48 583.5687,-54 583.5687,-60 583.5687,-60 583.5687,-72 583.5687,-72 583.5687,-78 577.5687,-84 571.5687,-84"/>
<text text-anchor="middle" x="554.516" y="-63" font-family="Helvetica,sans-Serif" font-size="10.00" fill="#000000">ビルド</text>
</g>
<!-- A2&#45;&gt;A4 -->
<g id="edge6" class="edge">
<title>A2&#45;&gt;A4</title>
<path fill="none" stroke="#000000" d="M340.0708,-109.8001C383.2206,-106.9232 449.331,-100.4235 505.03,-86 508.6042,-85.0744 512.2646,-83.9525 515.8977,-82.7178"/>
<polygon fill="#000000" stroke="#000000" points="525.3733,-79.2432 517.5338,-86.9109 520.6789,-80.9646 515.9845,-82.686 515.9845,-82.686 515.9845,-82.686 520.6789,-80.9646 514.4353,-78.4611 525.3733,-79.2432 525.3733,-79.2432"/>
</g>
<!-- A3&#45;&gt;A4 -->
<g id="edge4" class="edge">
<title>A3&#45;&gt;A4</title>
<path fill="none" stroke="#000000" d="M230.9091,-66C284.4655,-66 441.2105,-66 515.1061,-66"/>
<polygon fill="#000000" stroke="#000000" points="525.3855,-66 515.3855,-70.5001 520.3855,-66 515.3855,-66.0001 515.3855,-66.0001 515.3855,-66.0001 520.3855,-66 515.3854,-61.5001 525.3855,-66 525.3855,-66"/>
<text text-anchor="middle" x="390.6785" y="-69" font-family="Helvetica,sans-Serif" font-size="10.00" fill="#000000">静的ライブラリ</text>
</g>
<!-- A5 -->
<g id="node6" class="node">
<title>A5</title>
<polygon fill="none" stroke="#000000" points="390.6785,-36 372.6785,-18 390.6785,0 408.6785,-18 390.6785,-36"/>
</g>
<!-- A3&#45;&gt;A5 -->
<g id="edge5" class="edge">
<title>A3&#45;&gt;A5</title>
<path fill="none" stroke="#000000" d="M223.4403,-58.7513C230.3647,-54.4592 239.6591,-49.2431 248.522,-46 287.2727,-31.8203 334.7327,-24.3159 363.8287,-20.7542"/>
<polygon fill="#000000" stroke="#000000" points="374.0244,-19.5765 364.6068,-25.1943 369.0574,-20.1502 364.0904,-20.724 364.0904,-20.724 364.0904,-20.724 369.0574,-20.1502 363.574,-16.2537 374.0244,-19.5765 374.0244,-19.5765"/>
<text text-anchor="middle" x="294.1855" y="-49" font-family="Helvetica,sans-Serif" font-size="10.00" fill="#000000">動的ライブラリ</text>
</g>
<!-- A6 -->
<g id="node7" class="node">
<title>A6</title>
<ellipse fill="none" stroke="#000000" cx="638.002" cy="-24" rx="11" ry="11"/>
<ellipse fill="none" stroke="#000000" cx="638.002" cy="-24" rx="15" ry="15"/>
</g>
<!-- A4&#45;&gt;A6 -->
<g id="edge9" class="edge">
<title>A4&#45;&gt;A6</title>
<path fill="none" stroke="#000000" d="M583.7154,-51.3104C594.1541,-46.0589 605.7466,-40.227 615.5298,-35.3053"/>
<polygon fill="#000000" stroke="#000000" points="624.6001,-30.7422 617.6892,-39.2563 620.1335,-32.9893 615.6669,-35.2364 615.6669,-35.2364 615.6669,-35.2364 620.1335,-32.9893 613.6445,-31.2164 624.6001,-30.7422 624.6001,-30.7422"/>
</g>
<!-- A5&#45;&gt;A4 -->
<g id="edge7" class="edge">
<title>A5&#45;&gt;A4</title>
<path fill="none" stroke="#000000" d="M406.041,-21.0265C428.1772,-25.5524 470.2114,-34.7656 505.03,-46 508.5437,-47.1337 512.1624,-48.399 515.7683,-49.7275"/>
<polygon fill="#000000" stroke="#000000" points="525.2025,-53.3444 514.2543,-53.9663 520.5339,-51.5545 515.8652,-49.7645 515.8652,-49.7645 515.8652,-49.7645 520.5339,-51.5545 517.4762,-45.5628 525.2025,-53.3444 525.2025,-53.3444"/>
<text text-anchor="middle" x="473.269" y="-49" font-family="Helvetica,sans-Serif" font-size="10.00" fill="#000000">ABI互換性なし</text>
</g>
<!-- A5&#45;&gt;A6 -->
<g id="edge8" class="edge">
<title>A5&#45;&gt;A6</title>
<path fill="none" stroke="#000000" d="M408.4654,-18.4315C451.7137,-19.4807 562.4977,-22.1683 612.6537,-23.3851"/>
<polygon fill="#000000" stroke="#000000" points="622.9378,-23.6345 612.8316,-27.8906 617.9393,-23.5132 612.9408,-23.3919 612.9408,-23.3919 612.9408,-23.3919 617.9393,-23.5132 613.0499,-18.8932 622.9378,-23.6345 622.9378,-23.6345"/>
<text text-anchor="middle" x="554.516" y="-26" font-family="Helvetica,sans-Serif" font-size="10.00" fill="#000000">ABI互換性あり</text>
</g>
</g>
</svg>
