<svg version="1.1" viewBox="0.0 0.0 959.7060367454068 194.76115485564304" fill="none" stroke="none" stroke-linecap="square" stroke-miterlimit="10" xmlns:xlink="http://www.w3.org/1999/xlink" xmlns="http://www.w3.org/2000/svg"><clipPath id="p.0"><path d="m0 0l959.70605 0l0 194.76115l-959.70605 0l0 -194.76115z" clip-rule="nonzero"/></clipPath><g clip-path="url(#p.0)"><path fill="#000000" fill-opacity="0.0" d="m0 0l959.70605 0l0 194.76115l-959.70605 0z" fill-rule="evenodd"/><path shape-rendering="crispEdges" fill="#ffffff" d="m88.61811 30.893702l60.212593 0l0 48.196854l-60.212593 0l0 -48.196854z" fill-rule="nonzero"/><path shape-rendering="crispEdges" fill="#ffffff" d="m148.8307 30.893702l60.2126 0l0 48.196854l-60.2126 0l0 -48.196854z" fill-rule="nonzero"/><path shape-rendering="crispEdges" fill="#ffffff" d="m209.0433 30.893702l240.8504 0l0 48.196854l-240.8504 0l0 -48.196854z" fill-rule="nonzero"/><path shape-rendering="crispEdges" fill="#ffffff" d="m449.8937 30.893702l240.85037 0l0 48.196854l-240.85037 0l0 -48.196854z" fill-rule="nonzero"/><path shape-rendering="crispEdges" fill="#ffffff" d="m690.7441 30.893702l60.212585 0l0 48.196854l-60.212585 0l0 -48.196854z" fill-rule="nonzero"/><path shape-rendering="crispEdges" fill="#ffffff" d="m750.95667 30.893702l60.212646 0l0 48.196854l-60.212646 0l0 -48.196854z" fill-rule="nonzero"/><path shape-rendering="crispEdges" fill="#ffffff" d="m811.1693 30.893702l60.212585 0l0 48.196854l-60.212585 0l0 -48.196854z" fill-rule="nonzero"/><path stroke="#3c78d8" stroke-width="1.0" stroke-linecap="butt" d="m88.61811 30.395014l0 49.19423" fill-rule="nonzero"/><path stroke="#3c78d8" stroke-width="1.0" stroke-linecap="butt" d="m148.8307 30.395014l0 49.19423" fill-rule="nonzero"/><path stroke="#3c78d8" stroke-width="1.0" stroke-linecap="butt" d="m209.0433 30.395014l0 49.19423" fill-rule="nonzero"/><path stroke="#3c78d8" stroke-width="1.0" stroke-linecap="butt" d="m449.8937 30.395014l0 49.19423" fill-rule="nonzero"/><path stroke="#3c78d8" stroke-width="1.0" stroke-linecap="butt" d="m690.7441 30.395014l0 49.19423" fill-rule="nonzero"/><path stroke="#3c78d8" stroke-width="1.0" stroke-linecap="butt" d="m750.95667 30.395014l0 49.19423" fill-rule="nonzero"/><path stroke="#3c78d8" stroke-width="1.0" stroke-linecap="butt" d="m811.1693 30.395014l0 49.19423" fill-rule="nonzero"/><path stroke="#3c78d8" stroke-width="1.0" stroke-linecap="butt" d="m871.3819 30.395014l0 49.19423" fill-rule="nonzero"/><path stroke="#3c78d8" stroke-width="1.0" stroke-linecap="butt" d="m88.11942 30.893702l783.7611 0" fill-rule="nonzero"/><path stroke="#3c78d8" stroke-width="1.0" stroke-linecap="butt" d="m88.11942 79.09055l783.7611 0" fill-rule="nonzero"/><path fill="#666666" d="m171.12256 63.532124l0 -2.40625l2.390625 0l0 2.40625l-2.390625 0zm6.6679688 0l0 -2.40625l2.390625 0l0 2.40625l-2.390625 0zm6.6679688 0l0 -2.40625l2.390625 0l0 2.40625l-2.390625 0z" fill-rule="nonzero"/><path fill="#666666" d="m318.38452 63.532124l-2.109375 0l0 -13.4375q-0.75 0.71875 -2.0 1.453125q-1.234375 0.71875 -2.21875 1.078125l0 -2.03125q1.78125 -0.828125 3.09375 -2.015625q1.328125 -1.1875 1.875 -2.296875l1.359375 0l0 17.25zm5.4101562 -8.46875q0 -3.046875 0.625 -4.90625q0.625 -1.859375 1.859375 -2.859375q1.234375 -1.015625 3.109375 -1.015625q1.390625 0 2.421875 0.5625q1.046875 0.546875 1.71875 1.59375q0.6875 1.046875 1.078125 2.5625q0.390625 1.5 0.390625 4.0625q0 3.015625 -0.625 4.875q-0.625 1.859375 -1.859375 2.875q-1.234375 1.015625 -3.125 1.015625q-2.484375 0 -3.890625 -1.78125q-1.703125 -2.15625 -1.703125 -6.984375zm2.171875 0q0 4.21875 0.984375 5.625q0.984375 1.40625 2.4375 1.40625q1.453125 0 2.4375 -1.40625q1.0 -1.40625 1.0 -5.625q0 -4.25 -1.0 -5.640625q-0.984375 -1.390625 -2.453125 -1.390625q-1.453125 0 -2.328125 1.21875q-1.078125 1.578125 -1.078125 5.8125zm11.175781 0q0 -3.046875 0.625 -4.90625q0.625 -1.859375 1.859375 -2.859375q1.234375 -1.015625 3.109375 -1.015625q1.390625 0 2.421875 0.5625q1.046875 0.546875 1.71875 1.59375q0.6875 1.046875 1.078125 2.5625q0.390625 1.5 0.390625 4.0625q0 3.015625 -0.625 4.875q-0.625 1.859375 -1.859375 2.875q-1.234375 1.015625 -3.125 1.015625q-2.484375 0 -3.890625 -1.78125q-1.703125 -2.15625 -1.703125 -6.984375zm2.171875 0q0 4.21875 0.984375 5.625q0.984375 1.40625 2.4375 1.40625q1.453125 0 2.4375 -1.40625q1.0 -1.40625 1.0 -5.625q0 -4.25 -1.0 -5.640625q-0.984375 -1.390625 -2.453125 -1.390625q-1.453125 0 -2.328125 1.21875q-1.078125 1.578125 -1.078125 5.8125z" fill-rule="nonzero"/><path fill="#ff9900" d="m557.97125 59.032124l2.21875 -0.1875q0.234375 1.609375 1.125 2.4375q0.90625 0.8125 2.171875 0.8125q1.53125 0 2.578125 -1.140625q1.0625 -1.15625 1.0625 -3.0625q0 -1.796875 -1.015625 -2.84375q-1.015625 -1.046875 -2.65625 -1.046875q-1.015625 0 -1.84375 0.46875q-0.8125 0.453125 -1.28125 1.203125l-1.984375 -0.265625l1.65625 -8.828125l8.546875 0l0 2.015625l-6.859375 0l-0.921875 4.625q1.546875 -1.078125 3.25 -1.078125q2.25 0 3.796875 1.5625q1.546875 1.546875 1.546875 4.0q0 2.328125 -1.359375 4.03125q-1.65625 2.09375 -4.515625 2.09375q-2.34375 0 -3.828125 -1.3125q-1.484375 -1.3125 -1.6875 -3.484375zm13.347656 -3.96875q0 -3.046875 0.625 -4.90625q0.625 -1.859375 1.859375 -2.859375q1.234375 -1.015625 3.109375 -1.015625q1.390625 0 2.421875 0.5625q1.046875 0.546875 1.71875 1.59375q0.6875 1.046875 1.078125 2.5625q0.390625 1.5 0.390625 4.0625q0 3.015625 -0.625 4.875q-0.625 1.859375 -1.859375 2.875q-1.234375 1.015625 -3.125 1.015625q-2.484375 0 -3.890625 -1.78125q-1.703125 -2.15625 -1.703125 -6.984375zm2.171875 0q0 4.21875 0.984375 5.625q0.984375 1.40625 2.4375 1.40625q1.453125 0 2.4375 -1.40625q1.0 -1.40625 1.0 -5.625q0 -4.25 -1.0 -5.640625q-0.984375 -1.390625 -2.453125 -1.390625q-1.453125 0 -2.328125 1.21875q-1.078125 1.578125 -1.078125 5.8125z" fill-rule="nonzero"/><path fill="#666666" d="m713.03595 63.532124l0 -2.40625l2.390625 0l0 2.40625l-2.390625 0zm6.6679688 0l0 -2.40625l2.390625 0l0 2.40625l-2.390625 0zm6.6679688 0l0 -2.40625l2.390625 0l0 2.40625l-2.390625 0z" fill-rule="nonzero"/><path fill="#000000" fill-opacity="0.0" d="m208.45932 79.09055l240.34647 0l0 40.818893l-240.34647 0z" fill-rule="evenodd"/><path fill="#666666" d="m329.30637 102.7275l4.515625 4.328125q0.4375 0 0.546875 0.046875q0.125 0.03125 0.21875 0.171875q0.09375 0.125 0.09375 0.265625q0 0.21875 -0.15625 0.359375q-0.15625 0.140625 -0.515625 0.140625l-3.171875 0q-0.359375 0 -0.515625 -0.140625q-0.140625 -0.140625 -0.140625 -0.359375q0 -0.21875 0.140625 -0.34375q0.15625 -0.140625 0.515625 -0.140625l1.640625 0l-3.84375 -3.671875l-3.796875 3.671875l1.640625 0q0.34375 0 0.5 0.140625q0.15625 0.125 0.15625 0.34375q0 0.21875 -0.15625 0.359375q-0.15625 0.140625 -0.5 0.140625l-3.203125 0q-0.359375 0 -0.515625 -0.140625q-0.140625 -0.140625 -0.140625 -0.359375q0 -0.140625 0.078125 -0.265625q0.09375 -0.140625 0.203125 -0.171875q0.109375 -0.046875 0.5625 -0.046875l4.515625 -4.328125l-4.015625 -3.84375q-0.421875 0 -0.53125 -0.046875q-0.109375 -0.046875 -0.203125 -0.171875q-0.078125 -0.125 -0.078125 -0.28125q0 -0.21875 0.140625 -0.359375q0.15625 -0.140625 0.515625 -0.140625l2.6875 0q0.359375 0 0.5 0.140625q0.15625 0.140625 0.15625 0.375q0 0.203125 -0.15625 0.34375q-0.140625 0.140625 -0.5 0.140625l-1.171875 0l3.3125 3.203125l3.34375 -3.203125l-1.171875 0q-0.34375 0 -0.515625 -0.140625q-0.15625 -0.140625 -0.15625 -0.359375q0 -0.21875 0.15625 -0.359375q0.15625 -0.140625 0.515625 -0.140625l2.6875 0q0.34375 0 0.5 0.140625q0.15625 0.140625 0.15625 0.375q0 0.140625 -0.09375 0.265625q-0.078125 0.125 -0.203125 0.171875q-0.109375 0.046875 -0.53125 0.046875l-4.015625 3.84375z" fill-rule="nonzero"/><path fill="#000000" fill-opacity="0.0" d="m448.8058 79.09055l240.34644 0l0 40.818893l-240.34644 0z" fill-rule="evenodd"/><path fill="#666666" d="m569.04346 108.04l-4.5625 -9.15625l-0.296875 0q-0.359375 0 -0.515625 -0.140625q-0.140625 -0.140625 -0.140625 -0.34375q0 -0.15625 0.078125 -0.28125q0.078125 -0.125 0.1875 -0.171875q0.125 -0.0625 0.390625 -0.0625l2.6875 0q0.359375 0 0.5 0.140625q0.15625 0.140625 0.15625 0.375q0 0.203125 -0.15625 0.34375q-0.140625 0.140625 -0.5 0.140625l-1.3125 0l4.015625 8.078125l3.953125 -8.078125l-1.3125 0q-0.359375 0 -0.515625 -0.140625q-0.140625 -0.140625 -0.140625 -0.359375q0 -0.21875 0.140625 -0.359375q0.15625 -0.140625 0.515625 -0.140625l2.671875 0q0.375 0 0.515625 0.140625q0.15625 0.140625 0.15625 0.375q0 0.140625 -0.09375 0.28125q-0.09375 0.125 -0.21875 0.171875q-0.109375 0.03125 -0.640625 0.03125l-6.234375 12.703125l1.53125 0q0.34375 0 0.5 0.125q0.15625 0.140625 0.15625 0.359375q0 0.21875 -0.15625 0.359375q-0.15625 0.140625 -0.5 0.140625l-5.671875 0q-0.359375 0 -0.515625 -0.140625q-0.140625 -0.140625 -0.140625 -0.359375q0 -0.21875 0.140625 -0.359375q0.15625 -0.125 0.515625 -0.125l3.078125 0l1.734375 -3.546875z" fill-rule="nonzero"/></g></svg>